<svg xmlns="http://www.w3.org/2000/svg" viewBox="0 0 400 400"><defs><style>.cls-1{fill:#ffef99;}</style></defs><title>p-deisgn-03-fix-nocolor</title><g id="p-design-03-fix-nocolor"><g id="レイヤー_1のコピー_5" data-name="レイヤー 1のコピー 5"><path class="cls-1" d="M200,351.5A127.5,127.5,0,1,1,327.5,224,127.65,127.65,0,0,1,200,351.5Zm0-247A119.5,119.5,0,1,0,319.5,224,119.64,119.64,0,0,0,200,104.5Z"/><path class="cls-1" d="M76.5,351.5a4,4,0,0,1-4-4V224a4,4,0,0,1,8,0V347.5A4,4,0,0,1,76.5,351.5Z"/><path class="cls-1" d="M200,351.45l-1.8-.9c-34.87-17.5-46.77-43.51-46.29-62,.31-11.8,5.7-21.12,14.41-24.94,5.7-2.5,17.36-4.5,33.68,8.2,16.32-12.7,28-10.7,33.68-8.2,8.71,3.82,14.1,13.14,14.41,24.94.48,18.5-11.43,44.51-46.3,62Zm-24.58-81.7a14.68,14.68,0,0,0-5.89,1.17c-5.8,2.55-9.4,9.21-9.62,17.83-.62,23.76,20.81,43.52,40.09,53.72,19.28-10.2,40.71-30,40.09-53.72-.22-8.62-3.82-15.28-9.62-17.83-6.7-2.93-15.89-.3-25.59,7.23a4.08,4.08,0,0,1-1,2.21,4.94,4.94,0,0,1-8.78-2.21C188,272.64,181.19,269.75,175.42,269.75Z"/><path class="cls-1" d="M200,304.69h-.12a11.6,11.6,0,0,1-11.42-8.63c-2.52-8.51,3-16.69,9.27-20.7l1-.63h2.5l1,.63c6.23,4,11.79,12.19,9.27,20.7A11.62,11.62,0,0,1,200,304.69Zm-.06-8h0a3.72,3.72,0,0,0,3.82-2.9c.81-2.74-.14-6.81-3.83-10.11-3.69,3.3-4.64,7.37-3.83,10.11a3.71,3.71,0,0,0,3.79,2.9Z"/><path class="cls-1" d="M200,84.5a2.5,2.5,0,0,1-2.5-2.5V44a2.5,2.5,0,0,1,5,0V82A2.5,2.5,0,0,1,200,84.5Z"/><path class="cls-1" d="M103.85,107a2.47,2.47,0,0,1-2-1L70.54,66.53a2.5,2.5,0,0,1,3.92-3.11L105.81,103a2.5,2.5,0,0,1-2,4Z"/><path class="cls-1" d="M296.15,107a2.5,2.5,0,0,1-2-4l31.35-39.53a2.5,2.5,0,0,1,3.92,3.11l-31.35,39.52A2.47,2.47,0,0,1,296.15,107Z"/></g><path class="cls-1" d="M122.93,191a3.77,3.77,0,0,1,3.82-3.74,3.68,3.68,0,0,1,3.59,3.74v45.15a3.68,3.68,0,0,1-3.59,3.74,3.78,3.78,0,0,1-3.82-3.74v-1.51c-2.09,3.6-6.7,5.61-11.23,5.61-9.08,0-16.85-6.91-16.85-17.49,0-10.81,7.63-17.57,16.77-17.57,4.76,0,9.22,1.87,11.31,5.54ZM112.56,212.4a9.85,9.85,0,0,0-10.15,10.22,10.23,10.23,0,1,0,10.15-10.22Z"/><path class="cls-1" d="M169.3,225.36H145.89c.72,5.18,4.9,8.42,10.3,8.42,3.53,0,5.55-1.22,8-3.24a3.8,3.8,0,0,1,4.76-.29,3.24,3.24,0,0,1,.14,4.68,18.3,18.3,0,0,1-13.25,5.33c-9.58,0-17.28-7-17.28-17.64s7.7-17.42,17.28-17.42c9.36,0,16.56,6.48,16.85,16.77A3.38,3.38,0,0,1,169.3,225.36Zm-3.89-5.4c-.72-5.26-4.54-8.28-9.58-8.28s-9.22,3.09-9.94,8.28Z"/><path class="cls-1" d="M180.24,228.6A2.78,2.78,0,0,1,184,230a7.78,7.78,0,0,0,7.27,4c3.39,0,5.84-1.51,5.84-4,0-2.16-2.09-3.1-4.54-3.67L188,225.29c-7.13-1.95-9.72-5.84-9.29-11.24.44-5,5.84-8.85,12-8.85,4.46,0,8.57,1.44,10.8,5a3.22,3.22,0,0,1-.65,4.32c-1.22,1-2.73.94-4.32-.43a8.87,8.87,0,0,0-5.76-2.3c-1.87,0-4,.65-4.68,1.8a3.14,3.14,0,0,0-.29,2.88c.44,1.29,2.45,1.94,4.25,2.45l5.19,1.29c7.27,1.8,8.78,6.56,8.78,9.94,0,6.48-5.69,10.15-13.39,10.15-5.19,0-10.44-2.73-12.24-7.63A3.08,3.08,0,0,1,180.24,228.6Z"/><path class="cls-1" d="M215.44,187.63a4.68,4.68,0,1,1,0,9.36,4.69,4.69,0,1,1,0-9.36Zm3.75,21.67a3.78,3.78,0,0,0-3.82-3.74,3.69,3.69,0,0,0-3.6,3.74v26.86a3.69,3.69,0,0,0,3.6,3.74,3.78,3.78,0,0,0,3.82-3.74Z"/><path class="cls-1" d="M244.46,249.7c6.84,0,11.23-3.82,11.23-13.25V234c-1.8,4.1-6.84,6.26-11.37,6.26-9.08,0-17-6.77-17-17.42s7.92-17.64,17-17.64c4.53,0,9.29,2,11.37,5.68V209.3a3.69,3.69,0,0,1,3.6-3.74,3.78,3.78,0,0,1,3.82,3.74L263,234.86c-.07,15.48-7.27,21.75-18.58,21.75a17.23,17.23,0,0,1-13.61-6.48,3.43,3.43,0,0,1,.58-4.83,3.69,3.69,0,0,1,4.89.72A11.43,11.43,0,0,0,244.46,249.7Zm.72-37.3A10.06,10.06,0,0,0,235,222.77a9.94,9.94,0,0,0,10.22,10.36,10.26,10.26,0,0,0,10.37-10.36C255.55,216.07,250.73,212.4,245.18,212.4Z"/><path class="cls-1" d="M273.12,209.3a3.77,3.77,0,0,1,3.81-3.74,3.68,3.68,0,0,1,3.6,3.74V211c2-3.89,6.55-5.76,10.3-5.76,8.13,0,12.82,5.25,12.82,14.76v16.2a3.78,3.78,0,0,1-3.82,3.74,3.69,3.69,0,0,1-3.6-3.74V220.82c0-5.33-2.74-8.35-7.06-8.35s-8.64,2.37-8.64,9v14.69a3.78,3.78,0,0,1-3.82,3.74,3.68,3.68,0,0,1-3.59-3.74Z"/></g></svg>